# Blender 4.2.3 LTS
# www.blender.org
mtllib scene_2.mtl
o Plane
v -1.000000 0.000000 -3.000000
v -1.000000 0.000000 1.000000
v 1.000000 0.000000 -3.000000
v 1.000000 0.000000 1.000000
v -1.000000 2.000000 -3.000000
v -1.000000 2.000000 1.000000
v 1.000000 2.000000 -3.000000
v 1.000000 2.000000 1.000000
vn -0.0000 1.0000 -0.0000
vn -1.0000 -0.0000 -0.0000
vn 1.0000 -0.0000 -0.0000
vn -0.0000 -0.0000 1.0000
vn -0.0000 -1.0000 -0.0000
vn -0.0000 -0.0000 -1.0000
vt 1.000000 0.000000
vt 0.000000 1.000000
vt 0.000000 0.000000
vt 1.000000 1.000000
s 0
usemtl Material.005
f 2/1/1 3/2/1 1/3/1
f 2/1/6 8/4/6 4/4/6
f 2/1/1 4/4/1 3/2/1
f 2/1/6 6/1/6 8/4/6
usemtl Material.006
f 4/4/2 7/2/2 3/2/2
f 1/3/3 6/1/3 2/1/3
f 3/2/4 5/3/4 1/3/4
f 8/4/5 5/3/5 7/2/5
f 4/4/2 8/4/2 7/2/2
f 1/3/3 5/3/3 6/1/3
f 3/2/4 7/2/4 5/3/4
f 8/4/5 6/1/5 5/3/5
o Cube
v -0.759808 0.000000 -2.609808
v -0.759808 0.600000 -2.609808
v -0.240192 0.000000 -2.909808
v -0.240192 0.600000 -2.909808
v -0.459808 0.000000 -2.090192
v -0.459808 0.600000 -2.090192
v 0.059808 0.000000 -2.390192
v 0.059808 0.600000 -2.390192
vn -0.5000 -0.0000 -0.8660
vn 0.8660 -0.0000 -0.5000
vn 0.5000 -0.0000 0.8660
vn -0.8660 -0.0000 0.5000
vn -0.0000 -1.0000 -0.0000
vn -0.0000 1.0000 -0.0000
vt 0.625000 0.000000
vt 0.375000 0.250000
vt 0.375000 0.000000
vt 0.625000 0.250000
vt 0.375000 0.500000
vt 0.625000 0.500000
vt 0.375000 0.750000
vt 0.625000 0.750000
vt 0.375000 1.000000
vt 0.125000 0.750000
vt 0.125000 0.500000
vt 0.875000 0.500000
vt 0.625000 1.000000
vt 0.875000 0.750000
s 0
usemtl Material.004
f 10/5/7 11/6/7 9/7/7
f 12/8/8 15/9/8 11/6/8
f 16/10/9 13/11/9 15/9/9
f 14/12/10 9/13/10 13/11/10
f 15/9/11 9/14/11 11/15/11
f 12/16/12 14/12/12 16/10/12
f 10/5/7 12/8/7 11/6/7
f 12/8/8 16/10/8 15/9/8
f 16/10/9 14/12/9 13/11/9
f 14/12/10 10/17/10 9/13/10
f 15/9/11 13/11/11 9/14/11
f 12/16/12 10/18/12 14/12/12
o Cube.001
v -0.150000 0.000000 -1.750000
v -0.150000 0.300000 -1.750000
v -0.150000 0.000000 -2.050000
v -0.150000 0.300000 -2.050000
v 0.150000 0.000000 -1.750000
v 0.150000 0.300000 -1.750000
v 0.150000 0.000000 -2.050000
v 0.150000 0.300000 -2.050000
vn -1.0000 -0.0000 -0.0000
vn -0.0000 -0.0000 -1.0000
vn 1.0000 -0.0000 -0.0000
vn -0.0000 -0.0000 1.0000
vn -0.0000 -1.0000 -0.0000
vn -0.0000 1.0000 -0.0000
vt 0.625000 0.000000
vt 0.375000 0.250000
vt 0.375000 0.000000
vt 0.625000 0.250000
vt 0.375000 0.500000
vt 0.625000 0.500000
vt 0.375000 0.750000
vt 0.625000 0.750000
vt 0.375000 1.000000
vt 0.125000 0.750000
vt 0.125000 0.500000
vt 0.875000 0.500000
vt 0.625000 1.000000
vt 0.875000 0.750000
s 0
usemtl Material.002
f 18/19/13 19/20/13 17/21/13
f 20/22/14 23/23/14 19/20/14
f 24/24/15 21/25/15 23/23/15
f 22/26/16 17/27/16 21/25/16
f 23/23/17 17/28/17 19/29/17
f 20/30/18 22/26/18 24/24/18
f 18/19/13 20/22/13 19/20/13
f 20/22/14 24/24/14 23/23/14
f 24/24/15 22/26/15 21/25/15
f 22/26/16 18/31/16 17/27/16
f 23/23/17 21/25/17 17/28/17
f 20/30/18 18/32/18 22/26/18
o Cube.002
v -0.662379 0.614206 -2.260529
v -0.662379 1.114206 -2.260529
v -0.575555 0.614206 -2.752933
v -0.575555 1.114206 -2.752933
v -0.169975 0.614206 -2.173705
v -0.169975 1.114206 -2.173705
v -0.083151 0.614206 -2.666109
v -0.083151 1.114206 -2.666109
vn -0.9848 -0.0000 -0.1736
vn 0.1736 -0.0000 -0.9848
vn 0.9848 -0.0000 0.1736
vn -0.1736 -0.0000 0.9848
vn -0.0000 -1.0000 -0.0000
vn -0.0000 1.0000 -0.0000
vt 0.625000 0.000000
vt 0.375000 0.250000
vt 0.375000 0.000000
vt 0.625000 0.250000
vt 0.375000 0.500000
vt 0.625000 0.500000
vt 0.375000 0.750000
vt 0.625000 0.750000
vt 0.375000 1.000000
vt 0.125000 0.750000
vt 0.125000 0.500000
vt 0.875000 0.500000
vt 0.625000 1.000000
vt 0.875000 0.750000
s 0
usemtl Material.003
f 26/33/19 27/34/19 25/35/19
f 28/36/20 31/37/20 27/34/20
f 32/38/21 29/39/21 31/37/21
f 30/40/22 25/41/22 29/39/22
f 31/37/23 25/42/23 27/43/23
f 28/44/24 30/40/24 32/38/24
f 26/33/19 28/36/19 27/34/19
f 28/36/20 32/38/20 31/37/20
f 32/38/21 30/40/21 29/39/21
f 30/40/22 26/45/22 25/41/22
f 31/37/23 29/39/23 25/42/23
f 28/44/24 26/46/24 30/40/24
o Cube.003
v 0.521461 0.000000 -2.766647
v 0.521461 1.500000 -2.766647
v 0.947681 0.000000 -2.505235
v 0.947681 1.500000 -2.505235
v 0.323151 0.222076 -2.301725
v 0.298751 0.000000 -2.403529
v 0.323151 1.277924 -2.301725
v 0.298751 1.500000 -2.403529
v 0.623167 0.222076 -2.117717
v 0.724971 0.000000 -2.142117
v 0.623167 1.277924 -2.117717
v 0.724971 1.500000 -2.142117
vn -0.5228 -0.0000 0.8524
vn 0.5228 -0.0000 -0.8524
vn -0.0000 1.0000 -0.0000
vn -0.8524 -0.0000 -0.5228
vn 0.8524 -0.0000 0.5228
vn -0.9725 -0.0000 0.2331
vn 0.2331 -0.0000 0.9725
vn -0.4960 -0.3162 0.8087
vn -0.4960 0.3162 0.8087
vn -0.0000 -1.0000 -0.0000
vt 0.587987 0.787013
vt 0.412013 0.962987
vt 0.412013 0.787013
vt 0.625000 0.250000
vt 0.375000 0.500000
vt 0.375000 0.250000
vt 0.875000 0.500000
vt 0.625000 0.712987
vt 0.625000 0.500000
vt 0.625000 0.037013
vt 0.375000 0.037013
vt 0.375000 0.712987
vt 0.587987 0.962987
vt 0.375000 1.000000
vt 0.375000 0.750000
vt 0.625000 1.000000
vt 0.625000 0.750000
vt 0.125000 0.712987
vt 0.125000 0.500000
vt 0.875000 0.712987
s 0
usemtl Material.001
f 43/47/25 37/48/25 41/49/25
f 34/50/26 35/51/26 33/52/26
f 34/53/27 44/54/27 36/55/27
f 40/56/28 33/52/28 38/57/28
f 36/55/29 42/58/29 35/51/29
f 39/59/30 38/60/30 37/48/30
f 41/49/31 44/54/31 43/47/31
f 42/61/32 37/48/32 38/60/32
f 40/62/33 43/47/33 44/63/33
f 35/51/34 38/64/34 33/65/34
f 43/47/25 39/59/25 37/48/25
f 34/50/26 36/55/26 35/51/26
f 34/53/27 40/66/27 44/54/27
f 40/56/28 34/50/28 33/52/28
f 36/55/29 44/54/29 42/58/29
f 39/59/30 40/62/30 38/60/30
f 41/49/31 42/58/31 44/54/31
f 42/61/32 41/49/32 37/48/32
f 40/62/33 39/59/33 43/47/33
f 35/51/34 42/58/34 38/64/34
