# Blender 4.2.3 LTS
# www.blender.org
mtllib scene_4.mtl
o Plane
v -2.000000 -1.250000 1.000000
v 2.000000 -1.250000 1.000000
v -2.000000 -1.250000 -7.000000
v 2.000000 -1.250000 -7.000000
v -2.000000 1.750000 -7.000000
v -2.000000 1.750000 1.000000
v 2.000000 1.750000 1.000000
v 2.000000 1.750000 -7.000000
vn -0.0000 1.0000 -0.0000
vn -0.0000 -1.0000 -0.0000
vn -1.0000 -0.0000 -0.0000
vn 1.0000 -0.0000 -0.0000
vn -0.0000 -0.0000 1.0000
vn -0.0000 -0.0000 -1.0000
vt 0.000000 0.000000
vt 1.000000 0.000000
vt 1.000000 1.000000
vt 0.000000 1.000000
s 0
usemtl Walls
f 6/1/2 5/4/2 8/3/2 7/2/2
f 4/3/5 8/3/5 5/4/5 3/4/5
f 1/1/6 6/1/6 7/2/6 2/2/6
usemtl Left_wall
f 3/4/4 5/4/4 6/1/4 1/1/4
usemtl Right_wall
f 2/2/3 7/2/3 8/3/3 4/3/3
usemtl Floor
f 1/1/1 2/2/1 4/3/1 3/4/1
o Cube
v 0.316987 -1.250000 -5.816988
v 0.316987 -0.250000 -5.816988
v 0.816987 -1.250000 -6.683013
v 0.816987 -0.250000 -6.683013
v 1.183013 -1.250000 -5.316987
v 1.183013 -0.250000 -5.316987
v 1.683013 -1.250000 -6.183012
v 1.683013 -0.250000 -6.183012
v 0.890560 -1.165046 -6.640535
v 0.390560 -1.165046 -5.774510
v 0.390560 -0.334954 -5.774510
v 0.890560 -0.334954 -6.640535
v 1.609440 -1.165046 -6.225490
v 1.609440 -0.334954 -6.225490
v 1.109440 -1.165046 -5.359465
v 1.109440 -0.334954 -5.359465
vn -0.8660 -0.0000 -0.5000
vn 0.8660 -0.0000 0.5000
vn -0.0000 -1.0000 -0.0000
vn -0.0000 1.0000 -0.0000
vn -0.5000 -0.0000 0.8660
vn 0.5000 -0.0000 -0.8660
vt 0.375000 0.000000
vt 0.625000 0.000000
vt 0.625000 0.250000
vt 0.375000 0.250000
vt 0.375000 0.500000
vt 0.625000 0.500000
vt 0.625000 0.750000
vt 0.375000 0.750000
vt 0.125000 0.500000
vt 0.125000 0.750000
vt 0.875000 0.500000
vt 0.875000 0.750000
s 0
usemtl Cube_mat
f 9/5/7 10/6/7 12/7/7 11/8/7
f 15/9/8 16/10/8 14/11/8 13/12/8
f 11/13/9 15/9/9 13/12/9 9/14/9
f 16/10/10 12/15/10 10/16/10 14/11/10
f 18/5/8 17/8/8 20/7/8 19/6/8
f 21/9/7 23/12/7 24/11/7 22/10/7
f 17/13/10 18/14/10 23/12/10 21/9/10
f 22/10/9 24/11/9 19/16/9 20/15/9
f 9/5/11 18/5/11 19/6/11 10/6/11
f 13/12/11 23/12/11 18/14/11 9/14/11
f 15/9/12 21/9/12 22/10/12 16/10/12
f 11/13/12 17/13/12 21/9/12 15/9/12
f 10/16/11 19/16/11 24/11/11 14/11/11
f 14/11/11 24/11/11 23/12/11 13/12/11
f 16/10/12 22/10/12 20/15/12 12/15/12
f 12/7/12 20/7/12 17/8/12 11/8/12
o Torus
v -0.177276 -0.420000 -6.763312
v -0.209225 -0.420000 -6.459339
v -0.508194 -0.420000 -6.395791
v -0.661018 -0.420000 -6.660490
v -0.456499 -0.420000 -6.887631
v -0.588638 0.402724 -6.525812
v -0.542794 0.247138 -6.266752
v -0.715891 -0.004606 -6.275877
v -0.868715 -0.004606 -6.540576
v -0.790068 0.247138 -6.695045
v -1.411362 0.402724 -6.050813
v -1.209931 0.247138 -5.881580
v -1.131285 -0.004606 -6.036049
v -1.284109 -0.004606 -6.300748
v -1.457206 0.247138 -6.309873
v -1.822724 -0.420000 -5.813313
v -1.543501 -0.420000 -5.688994
v -1.338982 -0.420000 -5.916135
v -1.491806 -0.420000 -6.180834
v -1.790775 -0.420000 -6.117286
v -1.411362 -1.242724 -6.050813
v -1.209931 -1.087138 -5.881580
v -1.131285 -0.835394 -6.036049
v -1.284109 -0.835394 -6.300748
v -1.457206 -1.087138 -6.309873
v -0.588638 -1.242724 -6.525813
v -0.542794 -1.087138 -6.266752
v -0.715891 -0.835394 -6.275877
v -0.868715 -0.835394 -6.540576
v -0.790068 -1.087138 -6.695045
vn 0.9011 0.4232 0.0947
vn 0.2047 -0.1756 0.9629
vn -0.7500 -0.5000 0.4330
vn -0.7316 -0.1756 -0.6587
vn 0.3685 0.4232 -0.8277
vn 0.2663 0.8464 0.4612
vn 0.4681 -0.3513 0.8108
vn -0.0000 -1.0000 -0.0000
vn -0.4681 -0.3513 -0.8108
vn -0.2663 0.8464 -0.4612
vn -0.3685 0.4232 0.8277
vn 0.7316 -0.1756 0.6587
vn 0.7500 -0.5000 -0.4330
vn -0.2047 -0.1756 -0.9629
vn -0.9011 0.4232 -0.0947
vn -0.3685 -0.4232 0.8277
vn 0.7316 0.1756 0.6587
vn 0.7500 0.5000 -0.4330
vn -0.2047 0.1756 -0.9629
vn -0.9011 -0.4232 -0.0947
vn 0.2663 -0.8464 0.4612
vn 0.4681 0.3513 0.8108
vn -0.0000 1.0000 -0.0000
vn -0.4681 0.3513 -0.8108
vn -0.2663 -0.8464 -0.4612
vn 0.9011 -0.4232 0.0947
vn 0.2047 0.1756 0.9629
vn -0.7500 0.5000 0.4330
vn -0.7316 0.1756 -0.6587
vn 0.3685 -0.4232 -0.8277
vt 0.500000 0.600000
vt 0.666667 0.600000
vt 0.666667 0.800000
vt 0.500000 0.800000
vt 0.666667 1.000000
vt 0.500000 1.000000
vt 0.500000 0.000000
vt 0.666667 0.000000
vt 0.666667 0.200000
vt 0.500000 0.200000
vt 0.666667 0.400000
vt 0.500000 0.400000
vt 0.833333 0.600000
vt 0.833333 0.800000
vt 0.833333 1.000000
vt 0.833333 0.000000
vt 0.833333 0.200000
vt 0.833333 0.400000
vt 1.000000 0.600000
vt 1.000000 0.800000
vt 1.000000 1.000000
vt 1.000000 0.000000
vt 1.000000 0.200000
vt 1.000000 0.400000
vt -0.000000 0.600000
vt 0.166667 0.600000
vt 0.166667 0.800000
vt -0.000000 0.800000
vt 0.166667 1.000000
vt -0.000000 1.000000
vt -0.000000 0.000000
vt 0.166667 0.000000
vt 0.166667 0.200000
vt -0.000000 0.200000
vt 0.166667 0.400000
vt -0.000000 0.400000
vt 0.333333 0.600000
vt 0.333333 0.800000
vt 0.333333 1.000000
vt 0.333333 0.000000
vt 0.333333 0.200000
vt 0.333333 0.400000
s 0
usemtl Torus_Mat
f 25/17/13 30/18/13 31/19/13 26/20/13
f 26/20/14 31/19/14 32/21/14 27/22/14
f 27/23/15 32/24/15 33/25/15 28/26/15
f 28/26/16 33/25/16 34/27/16 29/28/16
f 29/28/17 34/27/17 30/18/17 25/17/17
f 30/18/18 35/29/18 36/30/18 31/19/18
f 31/19/19 36/30/19 37/31/19 32/21/19
f 32/24/20 37/32/20 38/33/20 33/25/20
f 33/25/21 38/33/21 39/34/21 34/27/21
f 34/27/22 39/34/22 35/29/22 30/18/22
f 35/29/23 40/35/23 41/36/23 36/30/23
f 36/30/24 41/36/24 42/37/24 37/31/24
f 37/32/25 42/38/25 43/39/25 38/33/25
f 38/33/26 43/39/26 44/40/26 39/34/26
f 39/34/27 44/40/27 40/35/27 35/29/27
f 40/41/28 45/42/28 46/43/28 41/44/28
f 41/44/29 46/43/29 47/45/29 42/46/29
f 42/47/30 47/48/30 48/49/30 43/50/30
f 43/50/31 48/49/31 49/51/31 44/52/31
f 44/52/32 49/51/32 45/42/32 40/41/32
f 45/42/33 50/53/33 51/54/33 46/43/33
f 46/43/34 51/54/34 52/55/34 47/45/34
f 47/48/35 52/56/35 53/57/35 48/49/35
f 48/49/36 53/57/36 54/58/36 49/51/36
f 49/51/37 54/58/37 50/53/37 45/42/37
f 50/53/38 25/17/38 26/20/38 51/54/38
f 51/54/39 26/20/39 27/22/39 52/55/39
f 52/56/40 27/23/40 28/26/40 53/57/40
f 53/57/41 28/26/41 29/28/41 54/58/41
f 54/58/42 29/28/42 25/17/42 50/53/42
o Cube.001
v -0.156944 -1.240000 -5.388002
v -0.156944 -0.840000 -5.388002
v -0.277845 -1.240000 -5.006711
v -0.277845 -0.840000 -5.006711
v -0.538236 -1.240000 -5.508903
v -0.538236 -0.840000 -5.508903
v -0.659136 -1.240000 -5.127611
v -0.659136 -0.840000 -5.127611
vn 0.9532 -0.0000 0.3023
vn -0.3023 -0.0000 0.9532
vn -0.9532 -0.0000 -0.3023
vn 0.3023 -0.0000 -0.9532
vn -0.0000 -1.0000 -0.0000
vn -0.0000 1.0000 -0.0000
vt 0.375000 0.000000
vt 0.625000 0.000000
vt 0.625000 0.250000
vt 0.375000 0.250000
vt 0.625000 0.500000
vt 0.375000 0.500000
vt 0.625000 0.750000
vt 0.375000 0.750000
vt 0.625000 1.000000
vt 0.375000 1.000000
vt 0.125000 0.500000
vt 0.125000 0.750000
vt 0.875000 0.500000
vt 0.875000 0.750000
s 0
usemtl Small_Cube_Mat
f 55/59/43 56/60/43 58/61/43 57/62/43
f 57/62/44 58/61/44 62/63/44 61/64/44
f 61/64/45 62/63/45 60/65/45 59/66/45
f 59/66/46 60/65/46 56/67/46 55/68/46
f 57/69/47 61/64/47 59/66/47 55/70/47
f 62/63/48 58/71/48 56/72/48 60/65/48
